<?xml version="1.0" encoding="UTF-8" standalone="no"?>
<svg
   viewBox="0 0 600 110.8"
   version="1.1"
   id="svg16"
   sodipodi:docname="logotype.svg"
   inkscape:version="1.4 (e7c3feb1, 2024-10-09)"
   xmlns:inkscape="http://www.inkscape.org/namespaces/inkscape"
   xmlns:sodipodi="http://sodipodi.sourceforge.net/DTD/sodipodi-0.dtd"
   xmlns:xlink="http://www.w3.org/1999/xlink"
   xmlns="http://www.w3.org/2000/svg"
   xmlns:svg="http://www.w3.org/2000/svg">
  <sodipodi:namedview
     id="namedview16"
     pagecolor="#ffffff"
     bordercolor="#000000"
     borderopacity="0.25"
     inkscape:showpageshadow="2"
     inkscape:pageopacity="0.0"
     inkscape:pagecheckerboard="0"
     inkscape:deskcolor="#d1d1d1"
     inkscape:zoom="1.4679384"
     inkscape:cx="388.64028"
     inkscape:cy="132.49875"
     inkscape:window-width="1728"
     inkscape:window-height="1052"
     inkscape:window-x="0"
     inkscape:window-y="65"
     inkscape:window-maximized="0"
     inkscape:current-layer="svg16" />
  <defs
     id="defs4">
    <rect
       x="369.2253"
       y="47.004697"
       width="71.528886"
       height="27.249099"
       id="rect19" />
    <rect
       x="158.04478"
       y="12.262095"
       width="124.66463"
       height="49.729606"
       id="rect18" />
    <rect
       x="156.68232"
       y="13.62455"
       width="166.90073"
       height="66.079066"
       id="rect17" />
    <style
       id="style1">.cls-1{fill:#fff;}.cls-2{fill:url(#linear-gradient);}.cls-3{fill:url(#linear-gradient-2);}.cls-4{fill:url(#linear-gradient-3);}.cls-5{fill:url(#linear-gradient-4);}.cls-6{fill:url(#linear-gradient-5);}.cls-7{fill:url(#linear-gradient-6);}</style>
    <linearGradient
       id="linear-gradient"
       x1="61.57"
       y1="108.09"
       x2="-5.08"
       y2="40.81"
       gradientUnits="userSpaceOnUse">
      <stop
         offset="0"
         stop-color="#0081ad"
         id="stop1" />
      <stop
         offset="1"
         stop-color="#14d1df"
         id="stop2" />
    </linearGradient>
    <linearGradient
       id="linear-gradient-2"
       x1="61.75"
       y1="107.92"
       x2="-4.9"
       y2="40.64"
       xlink:href="#linear-gradient" />
    <linearGradient
       id="linear-gradient-3"
       x1="41.36"
       y1="-4.8"
       x2="104.81"
       y2="59.29"
       xlink:href="#linear-gradient" />
    <linearGradient
       id="linear-gradient-4"
       x1="41.54"
       y1="-4.99"
       x2="105"
       y2="59.11"
       xlink:href="#linear-gradient" />
    <linearGradient
       id="linear-gradient-5"
       x1="13.3"
       y1="13.95"
       x2="86.01"
       y2="85.69"
       gradientUnits="userSpaceOnUse">
      <stop
         offset="0"
         stop-color="#14d1df"
         id="stop3" />
      <stop
         offset="1"
         stop-color="#85d9a5"
         id="stop4" />
    </linearGradient>
    <linearGradient
       id="linear-gradient-6"
       x1="13.33"
       y1="13.92"
       x2="86.03"
       y2="85.67"
       xlink:href="#linear-gradient-5" />
  </defs>
  <g
     id="Layer_2"
     data-name="Layer 2"
     transform="translate(9.842962,8.92672)">
    <g
       id="Logos"
       transform="translate(-6.8122751,2.0436825)">
      <path
         class="cls-4"
         d="M 57.59,28.16 C 68.73,19 78.5,13.21 84,12.62 A 50.58,50.58 0 0 0 26.67,6 78.32,78.32 0 0 1 39,13.16 a 179.37,179.37 0 0 1 18.59,15 z"
         id="path13"
         style="fill:#cccccc" />
      <path
         class="cls-5"
         d="M 88.47,17.13 C 87.88,22.59 82.08,32.36 72.93,43.5 a 166.75,166.75 0 0 1 17.53,22.4 68.89,68.89 0 0 1 4.66,8.51 50.58,50.58 0 0 0 -6.65,-57.28 z"
         id="path14"
         style="fill:#ff0000" />
      <path
         class="cls-6"
         d="m 50.55,34.25 v 0 C 33.17,18.55 17.48,9.52 13.5,13.5 c -4.61,4.61 8.23,24.94 28.69,45.4 2.8,2.8 5.6,5.45 8.36,7.94 z"
         id="path15"
         style="fill:#338000" />
      <path
         class="cls-7"
         d="m 66.84,50.55 v 0 c -2.49,2.75 -5.14,5.55 -7.94,8.35 -2.8,2.8 -5.6,5.45 -8.35,7.94 17.37,15.7 33.06,24.73 37,20.75 3.94,-3.98 -5.01,-19.67 -20.71,-37.04 z"
         id="path16"
         style="fill:url(#linear-gradient-6)" />
    </g>
  </g>
  <text
     xml:space="preserve"
     style="text-align:start;writing-mode:lr-tb;direction:ltr;text-anchor:start;white-space:pre;inline-size:203.76;fill:#ff0000"
     x="178.4816"
     y="34.742603"
     id="text16"
     transform="matrix(2.8172012,0,0,5.7224745,-340.61532,-123.21694)"><tspan
       x="178.4816"
       y="34.742603"
       id="tspan2"><tspan
         style="fill:#cccccc"
         id="tspan1">ARSINFO.IT</tspan></tspan></text>
  <text
     xml:space="preserve"
     id="text17"
     style="fill:#ff0000;text-orientation:auto;text-align:start;writing-mode:lr-tb;direction:ltr;white-space:pre;shape-inside:url(#rect17)" />
  <text
     xml:space="preserve"
     id="text18"
     style="fill:#ff0000;text-orientation:auto;text-align:start;writing-mode:lr-tb;direction:ltr;white-space:pre;shape-inside:url(#rect18)" />
  <text
     xml:space="preserve"
     id="text19"
     style="fill:#ff0000;text-orientation:auto;text-align:start;writing-mode:lr-tb;direction:ltr;white-space:pre;shape-inside:url(#rect19)" />
</svg>
