<?xml version="1.0" encoding="UTF-8" standalone="no"?>
<svg
   viewBox="0 0 300 300"
   version="1.1"
   id="svg9"
   sodipodi:docname="logo.svg"
   inkscape:version="1.4 (e7c3feb1, 2024-10-09)"
   xmlns:inkscape="http://www.inkscape.org/namespaces/inkscape"
   xmlns:sodipodi="http://sodipodi.sourceforge.net/DTD/sodipodi-0.dtd"
   xmlns:xlink="http://www.w3.org/1999/xlink"
   xmlns="http://www.w3.org/2000/svg"
   xmlns:svg="http://www.w3.org/2000/svg">
  <sodipodi:namedview
     id="namedview9"
     pagecolor="#ffffff"
     bordercolor="#000000"
     borderopacity="0.25"
     inkscape:showpageshadow="2"
     inkscape:pageopacity="0.0"
     inkscape:pagecheckerboard="0"
     inkscape:deskcolor="#d1d1d1"
     inkscape:zoom="0.3086866"
     inkscape:cx="251.0637"
     inkscape:cy="934.60487"
     inkscape:window-width="1728"
     inkscape:window-height="1080"
     inkscape:window-x="0"
     inkscape:window-y="37"
     inkscape:window-maximized="0"
     inkscape:current-layer="Logos" />
  <defs
     id="defs4">
    <linearGradient
       id="linearGradient16"
       x1="39.48"
       y1="41.389999"
       x2="255.24001"
       y2="254.31"
       gradientUnits="userSpaceOnUse"
       spreadMethod="pad">
      <stop
         offset="0"
         stop-color="#14d1df"
         id="stop15"
         style="stop-color:#14df39;stop-opacity:1;" />
      <stop
         offset="1"
         stop-color="#85d9a5"
         id="stop16" />
    </linearGradient>
    <linearGradient
       id="linearGradient14"
       x1="39.48"
       y1="41.389999"
       x2="255.24001"
       y2="254.31"
       gradientUnits="userSpaceOnUse"
       spreadMethod="pad">
      <stop
         offset="0"
         stop-color="#14d1df"
         id="stop13"
         style="stop-color:#14df39;stop-opacity:1;" />
      <stop
         offset="1"
         stop-color="#85d9a5"
         id="stop14" />
    </linearGradient>
    <linearGradient
       id="linearGradient12"
       x1="39.48"
       y1="41.389999"
       x2="255.24001"
       y2="254.31"
       gradientUnits="userSpaceOnUse"
       spreadMethod="pad">
      <stop
         offset="0"
         stop-color="#14d1df"
         id="stop11"
         style="stop-color:#14df39;stop-opacity:1;" />
      <stop
         offset="1"
         stop-color="#85d9a5"
         id="stop12" />
    </linearGradient>
    <linearGradient
       id="linearGradient10"
       x1="39.48"
       y1="41.39"
       x2="255.24"
       y2="254.31"
       gradientUnits="userSpaceOnUse">
      <stop
         offset="0"
         stop-color="#14d1df"
         id="stop9"
         style="stop-color:#14df5b;stop-opacity:1;" />
      <stop
         offset="1"
         stop-color="#85d9a5"
         id="stop10" />
    </linearGradient>
    <style
       id="style1">.cls-1{fill:url(#linear-gradient);}.cls-2{fill:url(#linear-gradient-2);}.cls-3{fill:url(#linear-gradient-3);}.cls-4{fill:url(#linear-gradient-4);}.cls-5{fill:url(#linear-gradient-5);}.cls-6{fill:url(#linear-gradient-6);}</style>
    <linearGradient
       id="linear-gradient"
       x1="182.71"
       y1="320.79"
       x2="-15.06"
       y2="121.11"
       gradientUnits="userSpaceOnUse">
      <stop
         offset="0"
         stop-color="#0081ad"
         id="stop1" />
      <stop
         offset="1"
         stop-color="#14d1df"
         id="stop2" />
    </linearGradient>
    <linearGradient
       id="linear-gradient-2"
       x1="183.24"
       y1="320.26"
       x2="-14.54"
       y2="120.59"
       xlink:href="#linear-gradient" />
    <linearGradient
       id="linear-gradient-3"
       x1="122.74"
       y1="-14.25"
       x2="311.05"
       y2="175.96"
       xlink:href="#linear-gradient" />
    <linearGradient
       id="linear-gradient-4"
       x1="123.29"
       y1="-14.8"
       x2="311.61"
       y2="175.41"
       xlink:href="#linear-gradient" />
    <linearGradient
       id="linear-gradient-5"
       x1="39.48"
       y1="41.39"
       x2="255.24"
       y2="254.31"
       gradientUnits="userSpaceOnUse"
       xlink:href="#linearGradient16">
      <stop
         offset="0"
         stop-color="#14d1df"
         id="stop3" />
      <stop
         offset="1"
         stop-color="#85d9a5"
         id="stop4" />
    </linearGradient>
    <linearGradient
       id="linear-gradient-6"
       x1="39.55"
       y1="41.32"
       x2="255.3"
       y2="254.24"
       xlink:href="#linear-gradient-5" />
  </defs>
  <g
     id="Layer_2"
     data-name="Layer 2">
    <g
       id="Logos">
      <path
         class="cls-3"
         d="M170.92,83.57C204,56.4,233,39.19,249.16,37.46a150.08,150.08,0,0,0-170-19.72c10.85,4.83,23,11.9,36.6,21.31A532.49,532.49,0,0,1,170.92,83.57Z"
         id="path6"
         style="fill:#e6e6e6" />
      <path
         class="cls-4"
         d="M262.54,50.84C260.81,67,243.6,96,216.43,129.08c21.16,23.19,39.18,46.17,52,66.48a204.84,204.84,0,0,1,13.83,25.25A150.07,150.07,0,0,0,262.54,50.84Z"
         id="path7"
         style="fill:#ff0000" />
      <path
         class="cls-5"
         d="M150,101.63h0C98.44,55,51.88,28.25,40.06,40.06c-13.69,13.7,24.43,74,85.15,134.73,8.31,8.32,16.61,16.19,24.79,23.58Z"
         id="path8"
         style="fill:#338000" />
      <path
         class="cls-6"
         d="M198.37,150h0c-7.39,8.18-15.26,16.48-23.58,24.79S158.18,191,150,198.37c51.56,46.59,98.12,73.38,109.94,61.57S245,201.56,198.37,150Z"
         id="path9" />
    </g>
  </g>
</svg>
